<?xml version="1.0" standalone="no"?>
<!DOCTYPE svg PUBLIC "-//W3C//DTD SVG 20010904//EN"
 "http://www.w3.org/TR/2001/REC-SVG-20010904/DTD/svg10.dtd">
<svg version="1.0" xmlns="http://www.w3.org/2000/svg"
 width="625.000000pt" height="625.000000pt" viewBox="0 0 625.000000 625.000000"
 preserveAspectRatio="xMidYMid meet">
<metadata>
Created by potrace 1.14, written by Peter Selinger 2001-2017
</metadata>
<g transform="translate(0.000000,625.000000) scale(0.100000,-0.100000)"
fill="#000000" stroke="none">
<path d="M873 4895 c0 -603 3 -845 11 -845 22 -1 871 1 882 2 16 2 17 528 1
528 -8 0 -8 3 -2 8 16 11 19 46 3 36 -10 -6 -11 -5 -1 7 15 19 15 109 -1 109
-7 0 -7 3 -1 8 16 11 19 45 3 37 -10 -6 -11 -5 0 6 6 7 12 21 12 31 0 10 -6
18 -12 18 -8 0 -9 3 -3 8 16 11 18 52 3 52 -8 0 -9 3 -3 8 16 11 19 46 3 36
-11 -6 -11 -5 0 8 17 21 15 228 -2 228 -7 0 -7 3 -1 8 16 11 19 46 3 36 -11
-6 -11 -5 0 8 14 18 12 68 -3 68 -6 0 -7 3 0 8 16 11 18 52 3 52 -8 0 -9 3 -3
8 16 11 18 44 3 53 -7 5 -8 9 -2 9 7 0 11 50 11 155 l1 154 -453 1 -452 0 0
-845z"/>
<path d="M2690 5730 c8 -5 10 -10 4 -10 -14 0 -14 -31 0 -49 8 -11 8 -13 -1
-7 -7 4 -13 2 -13 -3 0 -6 6 -11 13 -11 8 0 9 -3 1 -8 -15 -10 -15 -173 -1
-191 7 -8 7 -12 1 -9 -15 10 -16 -215 0 -224 8 -6 8 -8 -1 -8 -7 0 -13 -9 -13
-20 0 -11 6 -20 13 -20 8 0 9 -3 1 -8 -15 -10 -15 -173 -1 -191 7 -8 7 -12 1
-9 -15 10 -16 -215 0 -224 8 -6 8 -8 -1 -8 -7 0 -13 -9 -13 -20 0 -11 6 -20
13 -20 8 0 9 -3 1 -8 -15 -10 -15 -173 -1 -191 7 -8 7 -12 1 -9 -15 10 -16
-215 0 -224 8 -6 8 -8 -1 -8 -7 0 -13 -9 -13 -20 0 -11 6 -20 13 -20 8 0 9 -3
1 -8 -6 -4 -11 -23 -11 -42 0 -19 5 -38 11 -42 8 -5 7 -8 -1 -8 -7 0 -11 -12
-10 -30 2 -29 4 -30 52 -31 54 0 703 0 798 1 l57 0 -1 53 c-1 28 -7 58 -13 66
-8 11 -8 13 0 8 18 -10 19 190 2 211 -10 12 -10 14 0 8 9 -5 12 2 12 26 0 19
-6 40 -12 47 -10 11 -10 13 0 7 8 -5 12 2 12 26 0 19 -6 40 -12 47 -10 11 -10
13 0 7 8 -5 12 2 12 26 0 19 -6 40 -12 47 -9 10 -10 12 -1 7 17 -9 16 233 0
253 -9 11 -9 13 0 8 16 -10 16 212 0 232 -9 11 -9 13 -1 8 18 -10 19 190 2
211 -10 12 -10 14 0 8 9 -5 12 2 12 26 0 19 -6 40 -12 47 -10 11 -10 13 0 7 8
-5 12 2 12 26 0 19 -6 40 -12 47 -10 11 -10 13 0 7 8 -5 12 2 12 26 0 19 -6
40 -12 47 -8 9 -9 12 -1 7 8 -4 11 15 12 69 l1 75 -458 0 c-299 0 -452 -4
-442 -10z m7 -242 c-3 -8 -6 -5 -6 6 -1 11 2 17 5 13 3 -3 4 -12 1 -19z m0
-120 c-3 -8 -6 -5 -6 6 -1 11 2 17 5 13 3 -3 4 -12 1 -19z m0 -360 c-3 -8 -6
-5 -6 6 -1 11 2 17 5 13 3 -3 4 -12 1 -19z m0 -120 c-3 -8 -6 -5 -6 6 -1 11 2
17 5 13 3 -3 4 -12 1 -19z m0 -360 c-3 -8 -6 -5 -6 6 -1 11 2 17 5 13 3 -3 4
-12 1 -19z m0 -120 c-3 -8 -6 -5 -6 6 -1 11 2 17 5 13 3 -3 4 -12 1 -19z"/>
<path d="M4463 5670 c0 -44 4 -70 11 -70 7 0 7 -3 1 -8 -16 -11 -18 -44 -3
-53 7 -5 8 -9 3 -9 -15 0 -17 -50 -2 -50 7 0 8 -3 2 -8 -16 -11 -18 -44 -3
-53 7 -5 8 -9 2 -9 -15 0 -16 -103 -1 -112 8 -5 8 -8 1 -8 -8 0 -11 -44 -11
-140 -1 -101 2 -138 11 -133 8 5 8 3 0 -8 -15 -18 -17 -922 -2 -913 5 3 4 -3
-3 -14 -7 -12 -10 -24 -7 -27 5 -5 632 -9 874 -5 l31 0 0 845 0 845 -452 0
-452 -1 0 -69z"/>
<path d="M878 3608 c-1 -2 -2 -697 -3 -1545 l-2 -1543 2247 0 2247 0 0 1540
c0 1018 -3 1543 -10 1547 -6 4 -7 1 -2 -8 6 -11 5 -12 -6 -1 -7 6 -20 12 -29
12 -13 0 -13 -1 0 -10 9 -6 10 -10 3 -10 -6 0 -15 5 -18 10 -9 15 -27 12 -19
-2 6 -10 4 -10 -7 0 -14 13 -33 17 -25 4 2 -4 -4 -8 -14 -8 -10 0 -17 3 -14 7
2 4 -7 7 -21 7 -14 0 -23 -4 -20 -8 6 -9 -24 -6 -49 5 -11 5 -26 4 -38 -4 -10
-6 -23 -9 -29 -6 -16 10 -61 16 -56 7 3 -4 -3 -8 -13 -8 -10 0 -16 4 -14 8 3
4 1 8 -5 8 -5 0 -13 -4 -16 -10 -4 -6 -13 -5 -25 3 -16 9 -24 9 -41 -1 -15
-10 -24 -11 -32 -3 -6 6 -18 11 -27 11 -13 0 -13 -1 0 -10 9 -6 10 -10 3 -10
-6 0 -15 5 -18 10 -9 15 -27 12 -19 -2 6 -10 4 -10 -7 0 -14 13 -33 17 -25 4
2 -4 -4 -8 -14 -8 -10 0 -17 3 -14 7 2 4 -7 7 -21 7 -14 0 -23 -4 -20 -8 6 -9
-24 -6 -49 5 -11 5 -26 4 -38 -4 -10 -6 -23 -9 -29 -6 -16 10 -61 16 -56 7 3
-4 -3 -8 -13 -8 -10 0 -16 4 -14 8 3 5 -5 6 -18 5 l-23 -4 -1 -576 c-1 -427 1
-575 10 -570 8 5 8 3 0 -8 -16 -20 -17 -982 0 -972 6 4 5 -1 -3 -10 -7 -9 -10
-17 -7 -17 4 0 3 -8 -3 -17 -9 -17 -84 -18 -1348 -18 l-1338 0 2 78 c1 57 -1
76 -10 70 -9 -5 -9 -3 0 8 17 21 18 363 1 353 -10 -6 -10 -5 -1 7 15 19 15
281 -1 272 -7 -5 -7 -2 1 8 16 20 16 342 0 332 -9 -5 -9 -3 0 8 15 19 15 161
-1 152 -8 -5 -7 -2 1 8 15 19 15 161 -1 152 -8 -5 -7 -2 1 8 15 19 15 161 -1
152 -8 -5 -8 -3 0 8 16 20 16 302 1 292 -9 -5 -9 -3 -1 8 6 8 12 56 13 107 2
75 0 92 -11 86 -11 -6 -11 -5 0 8 19 23 12 74 -10 75 -10 1 -16 -2 -13 -6 6
-10 -23 -8 -49 4 -11 5 -26 4 -38 -4 -13 -8 -24 -8 -38 -1 -23 12 -43 13 -36
1 7 -10 -21 -8 -48 4 -11 5 -26 4 -38 -4 -13 -8 -24 -8 -38 -1 -23 12 -43 13
-36 1 7 -10 -21 -8 -48 4 -11 5 -26 4 -38 -4 -13 -8 -24 -8 -38 -1 -23 12 -43
13 -36 1 7 -10 -21 -8 -48 4 -11 5 -26 4 -38 -4 -13 -8 -24 -8 -38 -1 -23 12
-43 13 -36 1 7 -10 -21 -8 -48 4 -11 5 -26 4 -38 -4 -13 -8 -24 -8 -38 -1 -22
12 -43 13 -36 2 2 -4 -4 -8 -14 -9 -11 -1 -22 2 -25 8 -6 8 -23 13 -27 7z"/>
</g>
</svg>
